#!OML:ASF X:\für Bonn\!DataBase\2005_08_10_Bjorn_Final\c3d\bjorn.ASF
:FULLY-SPECIFIED
:DEGREES
136
root 0.471177 19.6516 3.15362 -198.956 -39.5486 -165.437
lowerback 19.256 -1.26168 -5.59352
upperback 18.4712 -5.83987 -1.69057
thorax 10.1235 -4.90547 1.56265
lowerneck -7.15947 -7.20626 -1.31894
upperneck 7.9167 -13.1632 21.1356
head 5.16404 -6.02317 5.79358
rclavicle -1.43125e-014 -2.22639e-014
rhumerus -41.7175 -1.31618 -84.695
rradius 26.1171
rwrist 19.842
rhand -12.0625 15.1262
rfingers 7.12502
rthumb 13.9967 -14.3826
lclavicle -1.43125e-014 -2.22639e-014
lhumerus 46.6195 -25.8344 82.8437
lradius 96.14
lwrist -0.0721735
lhand -31.4972 -20.4579
lfingers 7.12502
lthumb -4.76325 9.46858
rfemur -65.668 -9.4558 20.5968
rtibia 111.013
rfoot -9.49735 13.9032
rtoes -33.9753
lfemur 0.920269 -8.32049 -9.78875
ltibia 17.6139
lfoot 3.36698 -22.7055
ltoes 17.9034
137
root 0.41433 19.6529 3.14215 -198.622 -39.1633 -165.836
lowerback 18.3498 -1.46324 -5.40885
upperback 18.2336 -5.90886 -1.75676
thorax 10.2772 -4.85918 1.34187
lowerneck -7.04015 -7.24897 -1.37827
upperneck 8.22686 -13.1952 20.7478
head 5.21298 -6.02827 5.68129
rclavicle 6.04305e-014 -6.36111e-014
rhumerus -41.5591 -1.20217 -84.5462
rradius 26.0467
rwrist 19.4729
rhand -11.9217 14.9245
rfingers 7.12502
rthumb 14.1325 -14.5748
lclavicle 6.04305e-014 -6.36111e-014
lhumerus 45.567 -25.4235 82.1358
lradius 95.0794
lwrist -0.789673
lhand -31.5574 -20.8223
lfingers 7.12502
lthumb -4.8214 9.10288
rfemur -63.5995 -9.70212 20.3896
rtibia 109.563
rfoot -9.51759 13.22
rtoes -34.7503
lfemur 1.45645 -7.68412 -10.0448
ltibia 16.8915
lfoot 3.73836 -22.7806
ltoes 18.1965
138
root 0.358944 19.6514 3.12914 -198.264 -38.7318 -166.274
lowerback 17.4342 -1.63135 -5.23761
upperback 17.9954 -5.9403 -1.84551
thorax 10.4369 -4.79488 1.09892
lowerneck -6.88259 -7.29386 -1.38822
upperneck 8.48737 -13.2284 20.37
head 5.23818 -6.04082 5.56591
rclavicle -2.54444e-014 0
rhumerus -41.3522 -1.18948 -84.4179
rradius 25.9509
rwrist 19.1041
rhand -11.8285 14.7554
rfingers 7.12502
rthumb 14.2222 -14.7377
lclavicle -2.54444e-014 0
lhumerus 44.5148 -25.0313 81.28
lradius 93.9964
lwrist -1.5601
lhand -31.6063 -21.1868
lfingers 7.12502
lthumb -4.86859 8.73728
rfemur -61.5057 -9.87487 20.1519
rtibia 108.049
rfoot -9.57858 12.6465
rtoes -35.2278
lfemur 1.97392 -7.03906 -10.3205
ltibia 16.237
lfoot 4.03703 -22.8363
ltoes 18.5105
139
root 0.309681 19.6463 3.11574 -197.921 -38.2746 -166.706
lowerback 16.5919 -1.79123 -5.14642
upperback 17.7326 -5.97859 -1.90467
thorax 10.5471 -4.74534 0.940708
lowerneck -6.68823 -7.31593 -1.37135
upperneck 8.72524 -13.2157 19.9396
head 5.23893 -6.03636 5.43598
rclavicle -7.4743e-014 -4.13472e-014
rhumerus -41.1126 -1.1452 -84.2737
rradius 25.8445
rwrist 18.7651
rhand -11.8 14.6073
rfingers 7.12502
rthumb 14.2498 -14.8838
lclavicle -7.4743e-014 -4.13472e-014
lhumerus 43.3792 -24.5818 80.3225
lradius 92.9357
lwrist -2.32768
lhand -31.6842 -21.5283
lfingers 7.12502
lthumb -4.94378 8.39407
rfemur -59.3929 -9.9719 19.9202
rtibia 106.486
rfoot -9.7337 12.0762
rtoes -35.6699
lfemur 2.17078 -6.35549 -10.5597
ltibia 16.215
lfoot 4.03097 -23.0239
ltoes 18.8089
140
root 0.264015 19.6391 3.09898 -197.576 -37.8048 -167.158
lowerback 15.7781 -1.92488 -5.09848
upperback 17.4533 -5.98807 -1.97524
thorax 10.6285 -4.6848 0.795907
lowerneck -6.4369 -7.33244 -1.24319
upperneck 8.9166 -13.1873 19.4525
head 5.20298 -6.03116 5.27465
rclavicle -3.02153e-014 -3.49861e-014
rhumerus -40.8551 -1.20865 -84.1291
rradius 25.7005
rwrist 18.506
rhand -11.8384 14.4886
rfingers 7.12502
rthumb 14.2127 -15.0052
lclavicle -3.02153e-014 -3.49861e-014
lhumerus 42.1804 -24.1924 79.2426
lradius 91.9285
lwrist -3.15818
lhand -31.6039 -21.7823
lfingers 7.12502
lthumb -4.86628 8.14187
rfemur -57.2528 -9.96669 19.6611
rtibia 104.841
rfoot -9.86935 11.4482
rtoes -36.0848
lfemur 2.32439 -5.63956 -10.7945
ltibia 16.295
lfoot 3.97489 -23.204
ltoes 19.0376
